<svg width="18" height="18" viewBox="0 0 18 18" fill="none" xmlns="http://www.w3.org/2000/svg">
<path d="M0.900012 6.3H17.1M4.50001 0.899996V2.7M13.5 0.899996V2.7M3.60001 9.9H5.40001M3.60001 13.5H5.40001M8.10001 9.9H9.90001M8.10001 13.5H9.90001M12.6 9.9H14.4M12.6 13.5H14.4M3.78001 17.1H14.22C15.2281 17.1 15.7322 17.1 16.1172 16.9038C16.4559 16.7313 16.7313 16.4559 16.9038 16.1172C17.1 15.7322 17.1 15.2281 17.1 14.22V5.58C17.1 4.5719 17.1 4.06785 16.9038 3.68281C16.7313 3.34412 16.4559 3.06875 16.1172 2.89619C15.7322 2.7 15.2281 2.7 14.22 2.7H3.78001C2.77192 2.7 2.26787 2.7 1.88283 2.89619C1.54413 3.06875 1.26877 3.34412 1.0962 3.68281C0.900012 4.06785 0.900012 4.5719 0.900012 5.58V14.22C0.900012 15.2281 0.900012 15.7322 1.0962 16.1172C1.26877 16.4559 1.54413 16.7313 1.88283 16.9038C2.26787 17.1 2.77191 17.1 3.78001 17.1Z" stroke="#00FFA7" stroke-width="1.70676" stroke-linecap="round" stroke-linejoin="round"/>
</svg>
