<svg width="74" height="74" viewBox="0 0 74 74" fill="none" xmlns="http://www.w3.org/2000/svg">
<path d="M25.9003 45.1489C16.2695 45.1489 8.47917 36.9307 8.47917 26.8139C8.47917 16.697 16.2695 8.47917 25.9003 8.47917H44.0253C53.6561 8.47917 61.4465 16.6973 61.4465 26.8139C61.4465 36.9304 53.6561 45.1486 44.0253 45.1486L25.9003 45.1489Z" stroke="white" stroke-width="1.53333" stroke-linecap="round" stroke-linejoin="round"/>
<path d="M37.6479 52.558V63.7382C37.6479 64.7108 36.8644 65.5207 35.9254 65.5207C35.4658 65.5174 35.0275 65.3272 34.7112 64.9939L17.7208 47.4943C14.3931 44.0923 12.5534 39.4342 12.5534 34.6131C12.5534 24.6888 20.3438 16.6277 29.9746 16.6277H48.0996C57.7304 16.6277 65.5207 24.6889 65.5207 34.6131C65.5207 44.5372 57.7304 52.5984 48.0996 52.5984H37.6479V52.558Z" stroke="white" stroke-width="1.53333" stroke-linecap="round" stroke-linejoin="round"/>
</svg>
