<svg width="64" height="64" viewBox="0 0 64 64" fill="none" xmlns="http://www.w3.org/2000/svg">
<g clip-path="url(#clip0_57_764)">
<path d="M7.46666 55.4667C3.3504 55.4667 0 58.8171 0 62.9334C0 63.5232 0.4768 64 1.06667 64H13.8667C14.4565 64 14.9333 63.5232 14.9333 62.9334C14.9333 58.8171 11.5829 55.4667 7.46666 55.4667ZM2.24107 61.8667C2.6656 59.7814 4.31466 58.143 6.4 57.7174V59.7334H8.53333V57.7174C10.6187 58.144 12.2677 59.7814 12.6923 61.8667H2.24107Z" fill="white"/>
<path d="M62.9333 45.8666H61.0624C61.0037 45.7184 60.9429 45.5712 60.8768 45.4229L62.2005 44.0992C62.6176 43.6821 62.6176 43.008 62.2005 42.5909L57.6757 38.0661C57.4549 37.8453 57.1637 37.7493 56.8746 37.7632C58.5653 36.8661 59.7333 35.1093 59.7333 33.0666V5.33333C59.7333 2.39253 57.3408 0 54.4 0H5.33333C2.39253 0 0 2.39253 0 5.33333V33.0666C0 36.0074 2.39253 38.4 5.33333 38.4H19.2533L15.2235 45.8666H14.9333H13.3333C11.2747 45.8666 9.59999 47.5413 9.59999 49.6C9.59999 51.6586 11.2747 53.3333 13.3333 53.3333H36.2666C36.2666 53.9232 36.7434 54.4 37.3333 54.4H39.2042C39.2629 54.5482 39.3237 54.6954 39.3898 54.8437L38.0661 56.1674C37.649 56.5845 37.649 57.2586 38.0661 57.6757L42.5909 62.2005C43.008 62.6176 43.6821 62.6176 44.0992 62.2005L45.4229 60.8768C45.5712 60.9429 45.7184 61.0037 45.8666 61.0624V62.9333C45.8666 63.5232 46.3434 64 46.9333 64H53.3333C53.9232 64 54.4 63.5232 54.4 62.9333V61.0624C54.5482 61.0037 54.6954 60.9429 54.8437 60.8768L56.1674 62.2005C56.5845 62.6176 57.2586 62.6176 57.6757 62.2005L62.2005 57.6757C62.6176 57.2586 62.6176 56.5845 62.2005 56.1674L60.8768 54.8437C60.9429 54.6954 61.0037 54.5482 61.0624 54.4H62.9333C63.5232 54.4 64 53.9232 64 53.3333V46.9333C64 46.3434 63.5232 45.8666 62.9333 45.8666ZM2.13333 5.33333C2.13333 3.56906 3.56906 2.13333 5.33333 2.13333H54.4C56.1642 2.13333 57.6 3.56906 57.6 5.33333V27.7333H2.13333V5.33333ZM5.33333 36.2666C3.56906 36.2666 2.13333 34.8309 2.13333 33.0666V29.8666H57.6V33.0666C57.6 34.8309 56.1642 36.2666 54.4 36.2666H53.3333H46.9333H38.6922H21.0411H5.33333ZM56.1536 38.08L54.8437 39.3898C54.6954 39.3237 54.5482 39.2629 54.4 39.2042V38.4C55.0176 38.4 55.601 38.2741 56.1536 38.08ZM45.8666 38.4V39.2042C45.7184 39.2629 45.5712 39.3237 45.4229 39.3898L44.433 38.4H45.8666ZM42.256 38.4L41.3365 39.3194L40.7104 38.4H42.256ZM36.2666 51.2H13.3333C12.4512 51.2 11.7333 50.4821 11.7333 49.6C11.7333 48.7178 12.4512 48 13.3333 48H14.9333H15.8592H36.2666V51.2ZM17.6475 45.8656L21.6768 38.4H38.129L39.8016 40.8544L38.0661 42.5898C37.649 43.0069 37.649 43.681 38.0661 44.0981L39.3898 45.4218C39.3237 45.5701 39.2629 45.7173 39.2042 45.8656H37.3333H17.6475ZM61.8666 52.2666H60.3104C59.8442 52.2666 59.4336 52.5685 59.2928 53.0122C59.1306 53.5274 58.912 54.0522 58.6421 54.5685C58.4266 54.9824 58.5045 55.4869 58.8341 55.8165L59.9392 56.9216L56.9226 59.9381L55.8176 58.833C55.4869 58.5034 54.9834 58.4266 54.5696 58.641C54.0533 58.9109 53.5285 59.1296 53.0133 59.2917C52.5685 59.4336 52.2666 59.8442 52.2666 60.3104V61.8666H48V60.3104C48 59.8442 47.6981 59.4336 47.2544 59.2928C46.7392 59.1306 46.2144 58.912 45.6981 58.6421C45.2842 58.4277 44.7797 58.5045 44.4501 58.8341L43.345 59.9392L40.3285 56.9226L41.4336 55.8176C41.7632 55.488 41.841 54.9834 41.6256 54.5696C41.3557 54.0533 41.137 53.5285 40.9749 53.0133C40.833 52.5685 40.4224 52.2666 39.9562 52.2666H38.4V48H39.9562C40.4224 48 40.833 47.6981 40.9738 47.2544C41.136 46.7392 41.3546 46.2144 41.6245 45.6981C41.84 45.2842 41.7621 44.7797 41.4325 44.4501L40.3274 43.345L43.344 40.3285L44.449 41.4336C44.7786 41.7642 45.2832 41.841 45.697 41.6256C46.2133 41.3557 46.7381 41.137 47.2533 40.9749C47.6981 40.833 48 40.4224 48 39.9562V38.4H52.2666V39.9562C52.2666 40.4224 52.5685 40.833 53.0122 40.9738C53.5274 41.136 54.0522 41.3546 54.5685 41.6245C54.9824 41.84 55.4858 41.7632 55.8165 41.4325L56.9216 40.3274L59.9381 43.344L58.833 44.449C58.5034 44.7786 58.4256 45.2832 58.641 45.697C58.9109 46.2133 59.1296 46.7381 59.2917 47.2533C59.4336 47.6981 59.8442 48 60.3104 48H61.8666V52.2666Z" fill="white"/>
<path d="M50.1333 43.7332C46.6037 43.7332 43.7333 46.6036 43.7333 50.1332C43.7333 53.6628 46.6037 56.5332 50.1333 56.5332C53.6629 56.5332 56.5333 53.6628 56.5333 50.1332C56.5333 46.6036 53.6629 43.7332 50.1333 43.7332ZM50.1333 54.3999C47.7803 54.3999 45.8667 52.4863 45.8667 50.1332C45.8667 47.7802 47.7803 45.8666 50.1333 45.8666C52.4864 45.8666 54.4 47.7802 54.4 50.1332C54.4 52.4863 52.4864 54.3999 50.1333 54.3999Z" fill="white"/>
<path d="M21.0207 8.22085L19.5124 6.71259L12.0458 14.1792C11.6287 14.5963 11.6287 15.2704 12.0458 15.6875L19.5124 23.1542L21.0207 21.6459L14.3082 14.9334L21.0207 8.22085Z" fill="white"/>
<path d="M44.4875 14.1792L37.0208 6.71259L35.5125 8.22085L42.2251 14.9334L35.5125 21.6459L37.0208 23.1542L44.4875 15.6875C44.9045 15.2704 44.9045 14.5963 44.4875 14.1792Z" fill="white"/>
<path d="M32.1087 3.79547L22.5115 22.9899L24.4195 23.9439L34.0167 4.74949L32.1087 3.79547Z" fill="white"/>
<path d="M43.7332 21.3333H41.5999V23.4666H43.7332V21.3333Z" fill="white"/>
<path d="M47.9999 21.3333H45.8666V23.4666H47.9999V21.3333Z" fill="white"/>
<path d="M52.2667 21.3333H50.1333V23.4666H52.2667V21.3333Z" fill="white"/>
</g>
<defs>
<clipPath id="clip0_57_764">
<rect width="63.7026" height="63.7026" fill="white" transform="scale(1.00467)"/>
</clipPath>
</defs>
</svg>
