<svg width="38" height="35" viewBox="0 0 38 35" fill="none" xmlns="http://www.w3.org/2000/svg">
<path d="M35.5509 25.4386C33.6817 24.3431 31.4034 24.637 29.8684 26.0087L27.5374 24.6414V17.8854C27.5374 17.1862 27.1679 16.536 26.5698 16.1886L20.5882 12.7015V9.71317C22.5322 9.04514 23.9309 7.18356 23.9309 4.98796C23.9309 2.23122 21.7274 0 19.0049 0C16.2824 0 14.0789 2.23122 14.0789 4.98796C14.0789 7.18356 15.4775 9.04514 17.4215 9.71317V12.7015L11.44 16.1886C10.8418 16.536 10.4724 17.1862 10.4724 17.8854V24.637L8.14134 26.0042C6.60637 24.6325 4.3237 24.3386 2.45887 25.4342C0.105832 26.8148 -0.69464 29.861 0.655607 32.2436C2.01025 34.6263 5.00542 35.4457 7.34966 34.0696C9.2189 32.974 10.1073 30.8185 9.70709 28.7788L11.849 27.5184L18.0329 31.1258C18.332 31.2995 18.6662 31.3886 19.0005 31.3886C19.3347 31.3886 19.669 31.2995 19.9681 31.1258L26.1476 27.5229L28.2895 28.7832C27.8892 30.8185 28.7821 32.9785 30.6469 34.074C32.9911 35.4502 35.9907 34.6352 37.341 32.2481C38.6956 29.861 37.8951 26.8148 35.5509 25.4386ZM5.95103 31.6023C5.71214 31.7424 5.44825 31.8333 5.17454 31.8697C4.90082 31.9061 4.6227 31.8874 4.35617 31.8145C4.08965 31.7417 3.83998 31.6162 3.62155 31.4452C3.40311 31.2743 3.22023 31.0613 3.08341 30.8185C2.50285 29.7986 2.84591 28.4893 3.8531 27.9014C4.09199 27.7613 4.35588 27.6704 4.62959 27.634C4.90331 27.5976 5.18143 27.6164 5.44796 27.6892C5.71448 27.7621 5.96415 27.8876 6.18258 28.0585C6.40102 28.2295 6.5839 28.4425 6.72072 28.6853C7.30128 29.7051 6.95822 31.0145 5.95103 31.6023ZM16.8893 4.98796C16.9006 4.42857 17.128 3.89593 17.5227 3.50436C17.9174 3.11278 18.4479 2.89346 19.0005 2.89346C19.553 2.89346 20.0836 3.11278 20.4783 3.50436C20.873 3.89593 21.1003 4.42857 21.1116 4.98796C21.1003 5.54736 20.873 6.08 20.4783 6.47157C20.0836 6.86315 19.553 7.08247 19.0005 7.08247C18.4479 7.08247 17.9174 6.86315 17.5227 6.47157C17.128 6.08 16.9006 5.54736 16.8893 4.98796ZM24.3663 24.8597L19.0005 27.9905L13.6347 24.8597V18.6069L19.0005 15.4761L24.3663 18.6069V24.8597ZM34.9176 30.823C34.337 31.8428 33.0527 32.1946 32.0499 31.6068C31.0471 31.0189 30.6997 29.7096 31.2802 28.6897C31.8608 27.6698 33.1451 27.318 34.1479 27.9059C35.1551 28.4937 35.4981 29.7986 34.9176 30.823Z" fill="black"/>
</svg>
