<svg width="64" height="64" viewBox="0 0 64 64" fill="none" xmlns="http://www.w3.org/2000/svg">
<g clip-path="url(#clip0_57_747)">
<path d="M16 34.1332H22.4C22.9887 34.1332 23.4666 33.6554 23.4666 33.0666C23.4666 32.4779 22.9887 32 22.4 32H17.0666V29.8666H18.1332C18.722 29.8666 19.1998 29.3888 19.1998 28.8C19.1998 28.2112 18.722 27.7334 18.1332 27.7334H17.0666V25.5999H18.1332C18.722 25.5999 19.1998 25.122 19.1998 24.5332C19.1998 23.9445 18.722 23.4666 18.1332 23.4666H17.0666V21.3333H22.4C22.9887 21.3333 23.4666 20.8554 23.4666 20.2666C23.4666 19.6779 22.9887 19.2 22.4 19.2H17.0666V17.0666H18.1332C18.722 17.0666 19.1998 16.5888 19.1998 16C19.1998 15.4113 18.722 14.9334 18.1332 14.9334H17.0666V12.7999H18.1332C18.722 12.7999 19.1998 12.322 19.1998 11.7332C19.1998 11.1445 18.722 10.6666 18.1332 10.6666H17.0666V8.53325H22.4C22.9887 8.53325 23.4666 8.05538 23.4666 7.46663C23.4666 6.87788 22.9887 6.39988 22.4 6.39988H17.0666V2.13325H32V33.0666C32 33.6554 32.4778 34.1332 33.0666 34.1332C33.6553 34.1332 34.1332 33.6554 34.1332 33.0666V1.06662C34.1332 0.477875 33.6553 0 33.0666 0H16C15.4112 0 14.9333 0.477875 14.9333 1.06662V33.0666C14.9333 33.6554 15.4112 34.1332 16 34.1332Z" fill="white"/>
<path d="M1.06662 34.1334C1.65538 34.1334 2.13325 33.6555 2.13325 33.0667V5.33337C2.13325 3.77812 3.778 2.13337 5.33325 2.13337H11.7332C12.322 2.13337 12.7999 1.6555 12.7999 1.06675C12.7999 0.478 12.3221 0 11.7334 0H5.33337C2.592 0 0 2.592 0 5.33337V33.0667C0 33.6555 0.477875 34.1334 1.06662 34.1334Z" fill="white"/>
<path d="M48 12.8C47.4112 12.8 46.9333 13.2779 46.9333 13.8667V33.0667C46.9333 33.6554 47.4112 34.1333 48 34.1333C48.5887 34.1333 49.0666 33.6554 49.0666 33.0667V13.8667C49.0666 13.2779 48.5887 12.8 48 12.8Z" fill="white"/>
<path d="M41.6 13.8667V33.0667C41.6 33.6554 42.0779 34.1333 42.6666 34.1333C43.2554 34.1333 43.7332 33.6554 43.7332 33.0667V13.8667C43.7332 13.2779 43.2554 12.8 42.6666 12.8C42.0779 12.8 41.6 13.2779 41.6 13.8667Z" fill="white"/>
<path d="M43.7333 61.8666H42.6667V60.8C42.6667 60.2113 42.1888 59.7334 41.6001 59.7334C41.0113 59.7334 40.5335 60.2113 40.5335 60.8V61.8666H38.4V60.8C38.4 60.2113 37.9221 59.7334 37.3333 59.7334C36.7446 59.7334 36.2667 60.2113 36.2667 60.8V61.8666H34.1333V60.8C34.1333 60.2113 33.6555 59.7334 33.0667 59.7334C32.478 59.7334 32.0001 60.2113 32.0001 60.8V61.8666H29.8667V60.8C29.8667 60.2113 29.3888 59.7334 28.8001 59.7334C28.2113 59.7334 27.7335 60.2113 27.7335 60.8V61.8666H25.6V60.8C25.6 60.2113 25.1221 59.7334 24.5333 59.7334C23.9446 59.7334 23.4667 60.2113 23.4667 60.8V61.8666H21.3333V60.8C21.3333 60.2113 20.8555 59.7334 20.2667 59.7334C19.678 59.7334 19.2001 60.2113 19.2001 60.8V61.8666H17.0667V60.8C17.0667 60.2113 16.5888 59.7334 16.0001 59.7334C15.4113 59.7334 14.9335 60.2113 14.9335 60.8V61.8666H12.8V60.8C12.8 60.2113 12.3221 59.7334 11.7333 59.7334C11.1446 59.7334 10.6667 60.2113 10.6667 60.8V61.8666H8.53335V60.8C8.53335 60.2113 8.05547 59.7334 7.46672 59.7334C6.87797 59.7334 6.39997 60.2113 6.39997 60.8V61.8666H5.33335C4.7446 61.8666 4.26672 62.3445 4.26672 62.9333C4.26672 63.522 4.74447 64 5.33335 64H43.7333C44.3221 64 44.8 63.5221 44.8 62.9334C44.8 62.3446 44.3221 61.8666 43.7333 61.8666Z" fill="white"/>
<path d="M37.3334 34.1334C37.9221 34.1334 38.4 33.6556 38.4 33.0668V9.9062L42.6666 3.07957L46.0757 8.53345H41.6C41.0112 8.53345 40.5334 9.01132 40.5334 9.60007C40.5334 10.1888 41.0112 10.6667 41.6 10.6667H48C48.3882 10.6667 48.7445 10.4566 48.9334 10.1173C49.1211 9.77807 49.1105 9.3632 48.9046 9.0347L43.5712 0.501447C43.1809 -0.122553 42.1526 -0.122553 41.7621 0.501447L36.4287 9.0347C36.3231 9.20432 36.2666 9.39945 36.2666 9.60007V33.0667C36.2666 33.6556 36.7445 34.1334 37.3334 34.1334Z" fill="white"/>
<path d="M58.6666 0H48C47.4113 0 46.9334 0.477875 46.9334 1.06662C46.9334 1.65538 47.4113 2.13325 48 2.13325H58.6666C60.2219 2.13325 61.8666 3.778 61.8666 5.33325V43.7332C61.8666 45.2885 60.2219 46.9333 58.6666 46.9333H5.33337C3.77812 46.9333 2.13337 45.2885 2.13337 43.7332V38.4H58.6668C59.2555 38.4 59.7334 37.9221 59.7334 37.3334C59.7334 36.7446 59.2555 36.2668 58.6668 36.2668H1.06662C0.477875 36.2668 0 36.7446 0 37.3334V43.7334C0 46.4748 2.592 49.0667 5.33337 49.0667H58.6668C61.4081 49.0667 64.0001 46.4748 64.0001 43.7334V5.33337C64 2.592 61.408 0 58.6666 0Z" fill="white"/>
<path d="M29.8666 42.6666C29.8666 43.8431 30.8233 44.8 32 44.8C33.1765 44.8 34.1333 43.8432 34.1333 42.6666C34.1333 41.4901 33.1766 40.5332 32 40.5332C30.8235 40.5333 29.8666 41.4901 29.8666 42.6666Z" fill="white"/>
<path d="M37.3333 57.6001C37.9221 57.6001 38.4 57.1222 38.4 56.5334V52.2668C38.4 51.6781 37.9221 51.2002 37.3333 51.2002C36.7446 51.2002 36.2667 51.6781 36.2667 52.2668V56.5334C36.2666 57.1222 36.7445 57.6001 37.3333 57.6001Z" fill="white"/>
<path d="M27.7333 56.5334V52.2668C27.7333 51.6781 27.2555 51.2002 26.6667 51.2002C26.078 51.2002 25.6001 51.6781 25.6001 52.2668V56.5334C25.6001 57.1222 26.078 57.6001 26.6667 57.6001C27.2555 57.6001 27.7333 57.1222 27.7333 56.5334Z" fill="white"/>
<path d="M55.4667 57.6001H53.3333C50.9801 57.6001 49.0667 59.5137 49.0667 61.8667V62.9334C49.0667 63.5221 49.5445 64 50.1333 64H58.6667C59.2554 64 59.7333 63.5221 59.7333 62.9334V61.8667C59.7334 59.5137 57.8198 57.6001 55.4667 57.6001ZM51.2 61.8667C51.2 60.6902 52.1568 59.7333 53.3334 59.7333H55.4668C56.6433 59.7333 57.6002 60.6901 57.6002 61.8667H51.2Z" fill="white"/>
</g>
<defs>
<clipPath id="clip0_57_747">
<rect width="64" height="64" fill="white"/>
</clipPath>
</defs>
</svg>
