<svg width="28" height="28" viewBox="0 0 28 28" fill="none" xmlns="http://www.w3.org/2000/svg">
<path d="M7.43913 17.622C5.21854 17.9435 2.50267 18.5388 1.44158 19.5999C-0.480526 21.522 -0.480526 24.6364 1.44158 26.5585C3.36368 28.4806 6.47808 28.4806 8.40018 26.5585C9.46127 25.4974 10.0566 22.7831 10.378 20.5609H17.622C17.9435 22.7815 18.5388 25.4974 19.5999 26.5585C21.522 28.4806 24.6364 28.4806 26.5585 26.5585C28.4806 24.6364 28.4806 21.522 26.5585 19.5999C25.4974 18.5388 22.7831 17.9435 20.5609 17.622V10.378C22.7815 10.0566 25.4974 9.46127 26.5585 8.40018C28.4806 6.47808 28.4806 3.36368 26.5585 1.44158C24.638 -0.480526 21.522 -0.480526 19.5999 1.44158C18.5388 2.50267 17.9435 5.2169 17.622 7.43913H10.378C10.0566 5.21854 9.46127 2.50267 8.40018 1.44158C6.47808 -0.480526 3.36368 -0.480526 1.44158 1.44158C-0.480526 3.36368 -0.480526 6.47808 1.44158 8.40018C2.50267 9.46127 5.2169 10.0566 7.43913 10.378V17.622ZM6.04347 24.2739C5.40714 24.8742 4.39361 24.8693 3.7622 24.2378C3.13572 23.6114 3.1226 22.5978 3.72612 21.9549C4.18533 21.6351 5.44486 21.2858 6.98484 21.0119C6.70768 22.5503 6.35836 23.8196 6.04347 24.2739ZM24.2739 21.9549C24.8775 22.5962 24.8643 23.6097 24.2378 24.2362C23.6064 24.8676 22.5929 24.8725 21.9566 24.2723C21.6368 23.8131 21.2875 22.5535 21.0136 21.0136C22.5503 21.2907 23.8196 21.6401 24.2739 21.9549ZM21.9549 3.72448C22.5896 3.12752 23.6032 3.12588 24.2362 3.76056C24.8627 4.38705 24.8758 5.40058 24.2723 6.04347C23.8131 6.36328 22.5535 6.7126 21.0152 6.98648C21.2907 5.44814 21.6401 4.17877 21.9549 3.72448ZM3.72448 6.04347C3.12096 5.40222 3.13408 4.38869 3.76056 3.7622C4.39689 3.12588 5.41042 3.1308 6.04347 3.72612C6.36328 4.18533 6.7126 5.44486 6.98648 6.98484C5.44814 6.70768 4.17877 6.35836 3.72448 6.04347ZM17.2792 10.7192V17.2792H10.7192V10.7192H17.2792Z" fill="#0B1719"/>
</svg>
